<svg width="15" height="15" fill="none" xmlns="http://www.w3.org/2000/svg"><path d="M5.968 15C6.98 15 7.8 14.206 7.8 13.227c0-.98-.821-1.774-1.833-1.774-1.013 0-1.833.794-1.833 1.774 0 .979.82 1.773 1.833 1.773Zm5.347-3.546c-1.012 0-1.833.793-1.833 1.773 0 .98.821 1.773 1.833 1.773 1.013 0 1.833-.794 1.833-1.773 0-.98-.82-1.773-1.833-1.773Zm3.124-1.81H4.882l-.187-1.05h7.855a.561.561 0 0 0 .524-.343l1.87-4.56a.537.537 0 0 0-.316-.704.577.577 0 0 0-.208-.038H3.722L3.273.452A.556.556 0 0 0 2.712 0H.562A.552.552 0 0 0 0 .543c0 .3.251.543.561.543h1.683l1.609 9.191a.556.556 0 0 0 .561.453h10.025c.31 0 .561-.243.561-.543 0-.3-.251-.543-.561-.543Z" fill="#D12023"/></svg>