<svg width="20" height="17" fill="none" xmlns="http://www.w3.org/2000/svg"><path d="M19.414 0H.586A.586.586 0 0 0 0 .586V15.82c0 .324.262.586.586.586h18.828A.586.586 0 0 0 20 15.82V.586A.586.586 0 0 0 19.414 0Zm-.586 15.234H1.172V1.172h17.656v14.062Z" fill="#fff"/><path d="M2.93 14.063h9.375a.586.586 0 0 0 .586-.586V2.93a.586.586 0 0 0-.586-.586H2.93a.586.586 0 0 0-.586.586v10.547c0 .323.262.585.586.585Zm4.687-4.896a1.173 1.173 0 0 1-1.172-1.172 1.173 1.173 0 0 1 2.344 0c0 .646-.526 1.172-1.172 1.172Zm0 1.185c.97 0 1.758.788 1.758 1.757v.782H5.859v-.782a1.76 1.76 0 0 1 1.758-1.757ZM3.516 3.516h8.203v9.375h-1.172v-.782a2.929 2.929 0 0 0-1.3-2.432c.44-.427.714-1.023.714-1.682a2.346 2.346 0 0 0-2.344-2.343 2.346 2.346 0 0 0-2.344 2.343c0 .66.274 1.255.714 1.682a2.929 2.929 0 0 0-1.3 2.432v.782H3.516V3.516Zm11.152.614a.587.587 0 0 0 0-1.171.587.587 0 0 0 0 1.172Zm2.382 0a.587.587 0 0 0 0-1.171.587.587 0 0 0 0 1.172Zm-2.382 2.345a.587.587 0 0 0 0-1.172.587.587 0 0 0 0 1.172Zm2.382 0a.587.587 0 0 0 0-1.172.587.587 0 0 0 0 1.172Zm-2.382 2.343a.587.587 0 0 0 0-1.172.587.587 0 0 0 0 1.172Zm2.382 0a.587.587 0 0 0 0-1.172.587.587 0 0 0 0 1.172Zm-2.929 3.457c0 .97.789 1.758 1.758 1.758a1.76 1.76 0 0 0 1.758-1.758 1.76 1.76 0 0 0-1.758-1.757 1.76 1.76 0 0 0-1.758 1.757Zm1.758-.585a.587.587 0 1 1-.002 1.173.587.587 0 0 1 .002-1.173Z" fill="#fff"/></svg>