<svg width="176" height="40" fill="none" xmlns="http://www.w3.org/2000/svg"><path d="M14.444.759c-1.43.417-2.746.949-4.025 1.632l-8.05 8.121a21.229 21.229 0 0 0-1.617 4.061L14.444.76ZM3.196 30.854 30.579 3.226a12.224 12.224 0 0 0-1.504-.911L2.293 29.335c.3.532.602 1.025.903 1.519Zm7.262 6.756 26.819-27.06a12.39 12.39 0 0 0-.903-1.518L8.954 36.698c.488.342.977.645 1.504.911Zm28.698-21.974-23.66 23.87a18.88 18.88 0 0 0 2.031.342l21.967-22.163a17.903 17.903 0 0 0-.338-2.05ZM1.579 27.818 27.57 1.594c-.565-.266-1.166-.456-1.768-.645L.939 26.034c.189.607.377 1.177.64 1.784ZM39.646 20c0-.076-.038-.114-.038-.19L19.635 39.962c.075 0 .113.038.188.038.79 0 1.58-.076 2.37-.19l17.265-17.42c.113-.796.188-1.593.188-2.39Zm-2.256 9.184a20.312 20.312 0 0 0 1.542-3.985L24.977 39.28c1.391-.38 2.708-.91 3.95-1.518l8.462-8.577Zm-23.66 9.829 24.94-25.16a14.502 14.502 0 0 0-.678-1.785L11.962 38.33a14.22 14.22 0 0 0 1.769.683ZM35.432 7.704a17.893 17.893 0 0 0-1.091-1.29L6.355 34.649c.414.38.828.759 1.28 1.1L35.431 7.704ZM0 20 19.823 0h-.15c-.828 0-1.618.076-2.408.19L.188 17.42C.075 18.253 0 19.09 0 19.961V20Zm.452 4.25L24.036.455a19.588 19.588 0 0 0-2.069-.341L.114 22.164c.076.682.188 1.403.339 2.086ZM31.896 4.175 4.136 32.182c.34.456.715.873 1.092 1.328L33.213 5.275c-.452-.38-.865-.759-1.317-1.1Z" fill="#434242"/><path d="M41.527 0C30.694.114 21.93 9.032 21.93 20c0 11.044 8.84 20 19.785 20 10.946 0 19.823-8.956 19.823-20 0-10.968-8.764-19.886-19.597-20h-.414Zm.188 26.148c-3.348 0-6.094-2.77-6.094-6.148 0-3.416 2.746-6.148 6.094-6.148 3.385 0 6.094 2.732 6.094 6.148 0 3.378-2.709 6.148-6.094 6.148Z" fill="#373435"/><path d="M41.715 13.852c3.385 0 6.093 2.732 6.093 6.148 0 3.378-2.708 6.148-6.093 6.148-3.348 0-6.094-2.77-6.094-6.148 0-3.416 2.746-6.148 6.094-6.148Z" fill="#FEFEFE"/><path d="M41.715 7.818c-6.658 0-12.037 5.465-12.037 12.182 0 6.717 5.379 12.144 12.037 12.144 6.657 0 12.074-5.427 12.074-12.144 0-6.717-5.417-12.182-12.075-12.182Zm0 18.292c-3.348 0-6.057-2.732-6.057-6.11s2.709-6.11 6.056-6.11c3.348 0 6.094 2.732 6.094 6.11s-2.746 6.11-6.093 6.11Z" fill="#5B5B5B"/><path d="M41.714 15.788c-2.295 0-4.138 1.897-4.138 4.212 0 2.315 1.843 4.175 4.138 4.175A4.176 4.176 0 0 0 45.889 20c0-2.315-1.88-4.212-4.175-4.212ZM70.264.228c.376-.076.827-.114 1.279-.152.489-.038.902-.076 1.316-.076.376 0 .828.038 1.317.076s.94.076 1.316.152v15.028c.64-1.063 1.618-1.973 2.972-2.77 1.316-.76 2.934-1.177 4.852-1.177 1.617 0 3.122.266 4.514.835 1.354.531 2.558 1.329 3.536 2.467.978 1.1 1.767 2.543 2.294 4.25.564 1.746.828 3.758.828 6.11 0 4.706-1.317 8.388-3.95 11.044C87.905 38.672 84.144 40 79.178 40c-1.542 0-3.122-.152-4.777-.455-1.617-.304-3.009-.646-4.137-1.063V.228Zm5.228 34.687c.64.227 1.317.38 2.031.455.715.076 1.467.114 2.257.114 1.317 0 2.52-.19 3.611-.607a7.782 7.782 0 0 0 2.897-1.86 8.874 8.874 0 0 0 1.918-3.188c.489-1.328.715-2.846.715-4.63 0-2.96-.49-5.237-1.543-6.869-1.015-1.632-2.708-2.467-5.078-2.467-.79 0-1.58.114-2.407.38a7.536 7.536 0 0 0-2.182 1.29c-.677.607-1.203 1.366-1.617 2.353-.414.987-.602 2.163-.602 3.567v11.462Zm35.962-13.625c0-2.087-.527-3.53-1.58-4.364-1.091-.797-2.596-1.214-4.627-1.214-1.241 0-2.37.075-3.46.265-1.091.228-2.107.456-3.16.797-.64-1.176-.978-2.58-.978-4.212a20.108 20.108 0 0 1 3.95-.911 27.245 27.245 0 0 1 4.175-.342c3.536 0 6.206.835 8.049 2.43 1.843 1.631 2.746 4.212 2.746 7.779v17.116a65.727 65.727 0 0 1-4.476.91 31.942 31.942 0 0 1-5.416.456 21.78 21.78 0 0 1-4.665-.493c-1.391-.342-2.595-.835-3.535-1.556a7.21 7.21 0 0 1-2.257-2.733c-.527-1.1-.79-2.429-.79-3.985 0-1.518.3-2.884.902-4.022a8.45 8.45 0 0 1 2.52-2.885c1.054-.759 2.295-1.328 3.649-1.707 1.392-.38 2.821-.57 4.326-.57 1.128 0 2.069.038 2.783.076.715.076 1.355.114 1.844.19V21.29Zm0 5.2a41.083 41.083 0 0 0-2.032-.228 22.384 22.384 0 0 0-2.031-.114c-2.219 0-3.874.418-5.003 1.252-1.166.797-1.73 2.05-1.73 3.72 0 1.062.188 1.897.564 2.504a4.702 4.702 0 0 0 1.467 1.404 5.618 5.618 0 0 0 1.919.57c.714.076 1.391.114 2.031.114.79 0 1.655-.038 2.52-.114.865-.114 1.618-.228 2.295-.418v-8.69Zm7.746 7.893c.941.38 1.994.683 3.122.95 1.166.227 2.295.34 3.423.34.828 0 1.58-.113 2.332-.265.753-.19 1.392-.455 1.919-.835.564-.342 1.015-.759 1.354-1.29.301-.532.489-1.1.489-1.746 0-.683-.151-1.29-.414-1.746-.263-.455-.602-.873-1.053-1.176-.452-.304-.941-.607-1.542-.835a18.25 18.25 0 0 0-1.881-.645l-1.843-.721c-2.257-.835-3.875-1.784-4.928-2.885-1.015-1.062-1.504-2.504-1.504-4.288 0-2.429.827-4.364 2.557-5.768 1.693-1.443 4.213-2.164 7.523-2.164 1.392 0 2.746.152 4.063.418 1.316.265 2.482.569 3.46.948-.075.684-.188 1.405-.413 2.126a10.148 10.148 0 0 1-.715 1.973c-.752-.303-1.693-.57-2.746-.835a14.734 14.734 0 0 0-3.498-.417 8.425 8.425 0 0 0-3.461.72c-.978.456-1.504 1.291-1.504 2.43 0 .607.15 1.138.376 1.556.263.455.602.797 1.015 1.1.414.304.903.57 1.467.76.527.227 1.129.455 1.768.644l2.332.797a27.23 27.23 0 0 1 2.408 1.025c.752.38 1.392.873 1.956 1.48.526.57.978 1.29 1.316 2.125.339.835.489 1.86.489 3.036 0 1.29-.263 2.505-.79 3.568-.526 1.1-1.279 2.011-2.257 2.808-.977.76-2.144 1.328-3.498 1.784a15.703 15.703 0 0 1-4.551.645 24.86 24.86 0 0 1-4.439-.38 23.433 23.433 0 0 1-3.573-.91 11.11 11.11 0 0 1 .451-2.163 25 25 0 0 1 .79-2.164Z" fill="#373435"/><path d="M144.365.949c.452-.038.865-.114 1.354-.152.452-.038.903-.038 1.354-.038.452 0 .903 0 1.392.038.452.038.865.114 1.317.152v38.406c-.452.076-.865.114-1.317.152-.414.038-.903.038-1.392.038-.451 0-.94 0-1.391-.038a12.632 12.632 0 0 1-1.317-.152V.949Zm8.352-.039a22.45 22.45 0 0 1 1.881-.189 43.128 43.128 0 0 1 2.294-.19c.79-.076 1.58-.114 2.37-.151.79-.038 1.58-.038 2.294-.038 1.956 0 3.799.19 5.53.569 1.768.38 3.272 1.062 4.626 2.05 1.317.948 2.37 2.2 3.122 3.794.79 1.594 1.166 3.568 1.166 5.958 0 2.505-.413 4.555-1.241 6.224-.827 1.632-1.918 2.96-3.272 3.985-1.355.987-2.897 1.67-4.627 2.087a22.52 22.52 0 0 1-5.304.608h-1.768c-.489-.038-1.053-.076-1.655-.152v13.89c-.865.076-1.768.152-2.708.152-.414 0-.865 0-1.354-.038a8.14 8.14 0 0 1-1.354-.114V.91Zm5.416 19.811c.565.076 1.054.114 1.467.152.452.038 1.054.076 1.881.076 1.091 0 2.144-.114 3.235-.38a7.657 7.657 0 0 0 2.896-1.252c.828-.607 1.505-1.404 2.031-2.467.489-1.063.753-2.429.753-4.099 0-1.442-.226-2.656-.64-3.68-.451-.988-1.053-1.784-1.843-2.392-.79-.607-1.693-1.024-2.783-1.29a17.807 17.807 0 0 0-3.574-.38 29.92 29.92 0 0 0-3.423.19v15.522Z" fill="#D12023"/><path d="M42.805 16.395c-1.129 0-2.032.91-2.032 2.05 0 1.138.903 2.049 2.032 2.049 1.09 0 1.993-.911 1.993-2.05 0-1.138-.903-2.05-1.993-2.05Z" fill="#D32D23"/></svg>