<svg width="21" height="20" fill="none" xmlns="http://www.w3.org/2000/svg"><path d="M8.283 11.718C6.374 9.81 5.943 7.9 5.846 7.136a.686.686 0 0 1 .197-.574l1.544-1.544a.69.69 0 0 0 .098-.854L5.225.344a.69.69 0 0 0-.893-.25l-3.95 1.86a.686.686 0 0 0-.378.684C.21 4.604 1.067 9.436 5.816 14.184c4.748 4.749 9.58 5.606 11.546 5.812a.686.686 0 0 0 .685-.379l1.86-3.949a.69.69 0 0 0-.25-.892l-3.82-2.459a.69.69 0 0 0-.853.097l-1.544 1.545a.685.685 0 0 1-.574.197c-.765-.098-2.674-.529-4.583-2.438Z" fill="#fff"/><path d="M15.864 10.69a.69.69 0 0 1-.69-.69 5.178 5.178 0 0 0-5.172-5.172.69.69 0 1 1 0-1.38A6.56 6.56 0 0 1 16.554 10a.69.69 0 0 1-.69.69Z" fill="#fff"/><path d="M19.313 10.69a.69.69 0 0 1-.69-.69 8.63 8.63 0 0 0-8.62-8.62.69.69 0 1 1 0-1.38c5.52.006 9.993 4.48 10 10a.69.69 0 0 1-.69.69Z" fill="#fff"/></svg>