<svg width="15" height="15" viewBox="0 0 15 15" fill="none" xmlns="http://www.w3.org/2000/svg">
<path d="M5.96768 14.9999C6.97998 14.9999 7.8006 14.206 7.8006 13.2267C7.8006 12.2474 6.97998 11.4535 5.96768 11.4535C4.95539 11.4535 4.13477 12.2474 4.13477 13.2267C4.13477 14.206 4.95539 14.9999 5.96768 14.9999Z" fill="#D12023"/>
<path d="M11.3153 11.4536C10.3031 11.4536 9.48242 12.2475 9.48242 13.2268C9.48242 14.2061 10.3031 15 11.3153 15C12.3276 15 13.1483 14.2061 13.1483 13.2268C13.1483 12.2475 12.3276 11.4536 11.3153 11.4536Z" fill="#D12023"/>
<path d="M14.4389 9.64415H4.88155L4.69451 8.5947H12.5499C12.781 8.59537 12.9889 8.45889 13.0736 8.25091L14.9439 3.69123C15.0575 3.41232 14.9159 3.09709 14.6276 2.98719C14.5616 2.96199 14.4912 2.94916 14.4202 2.94937H3.72195L3.27307 0.452403C3.22697 0.18838 2.98872 -0.00369216 2.71197 5.38553e-05H0.561097C0.251215 5.38553e-05 0 0.243086 0 0.542873C0 0.842661 0.251215 1.08569 0.561097 1.08569H2.24439L3.85287 10.2774C3.89897 10.5415 4.13722 10.7335 4.41396 10.7298H14.4389C14.7488 10.7298 15 10.4868 15 10.187C15 9.88718 14.7488 9.64415 14.4389 9.64415Z" fill="#D12023"/>
</svg>
