<svg width="20" height="20" viewBox="0 0 20 20" fill="none" xmlns="http://www.w3.org/2000/svg">
<path d="M13.3573 2.28848C10.3064 -0.7625 5.34067 -0.7625 2.28969 2.28848C-0.760626 5.34011 -0.760626 10.3051 2.28969 13.3568C5.00667 16.0731 9.23822 16.3641 12.2872 14.243C12.3514 14.5466 12.4982 14.8363 12.7343 15.0724L17.1775 19.5156C17.825 20.1618 18.8713 20.1618 19.5155 19.5156C20.1623 18.8688 20.1623 17.8225 19.5155 17.1776L15.0723 12.7331C14.8375 12.499 14.5472 12.3515 14.2436 12.2873C16.366 9.23767 16.075 5.00678 13.3573 2.28848ZM11.9545 11.954C9.67672 14.2318 5.96964 14.2318 3.69249 11.954C1.416 9.67616 1.416 5.96975 3.69249 3.69194C5.96964 1.41478 9.67672 1.41478 11.9545 3.69194C14.2323 5.96975 14.2323 9.67616 11.9545 11.954Z" fill="#5B5B5B"/>
</svg>
