<svg width="20" height="17" viewBox="0 0 20 17" fill="none" xmlns="http://www.w3.org/2000/svg">
<path d="M19.4141 0H0.585938C0.262299 0 0 0.262299 0 0.585938V15.8203C0 16.144 0.262299 16.4062 0.585938 16.4062H19.4141C19.7377 16.4062 20 16.144 20 15.8203V0.585938C20 0.262299 19.7377 0 19.4141 0ZM18.8281 15.2344H1.17188V1.17188H18.8281V15.2344Z" fill="white"/>
<path d="M2.92969 14.0625H12.3047C12.6283 14.0625 12.8906 13.8002 12.8906 13.4766V2.92969C12.8906 2.60605 12.6283 2.34375 12.3047 2.34375H2.92969C2.60605 2.34375 2.34375 2.60605 2.34375 2.92969V13.4766C2.34375 13.8002 2.60605 14.0625 2.92969 14.0625ZM7.61719 9.16717C6.97098 9.16717 6.44531 8.64136 6.44531 7.9953C6.44531 7.34909 6.97098 6.82342 7.61719 6.82342C8.2634 6.82342 8.78906 7.34909 8.78906 7.9953C8.78906 8.64136 8.2634 9.16717 7.61719 9.16717ZM7.61719 10.3516C8.58643 10.3516 9.375 11.1401 9.375 12.1094V12.8906H5.85937V12.1094C5.85937 11.1401 6.64795 10.3516 7.61719 10.3516ZM3.51562 3.51562H11.7187V12.8906H10.5469V12.1094C10.5469 11.097 10.0307 10.2031 9.24759 9.67667C9.68704 9.25034 9.96094 8.65433 9.96094 7.9953C9.96094 6.70288 8.90961 5.65155 7.61719 5.65155C6.32477 5.65155 5.27344 6.70288 5.27344 7.9953C5.27344 8.65433 5.54733 9.25034 5.98679 9.67667C5.2037 10.2031 4.6875 11.097 4.6875 12.1094V12.8906H3.51562V3.51562Z" fill="white"/>
<path d="M14.668 4.13086C14.9907 4.13086 15.2539 3.86765 15.2539 3.54492C15.2539 3.2222 14.9907 2.95898 14.668 2.95898C14.3452 2.95898 14.082 3.2222 14.082 3.54492C14.082 3.86765 14.3452 4.13086 14.668 4.13086Z" fill="white"/>
<path d="M17.0508 4.13086C17.3735 4.13086 17.6367 3.86765 17.6367 3.54492C17.6367 3.2222 17.3735 2.95898 17.0508 2.95898C16.7281 2.95898 16.4648 3.2222 16.4648 3.54492C16.4648 3.86765 16.7281 4.13086 17.0508 4.13086Z" fill="white"/>
<path d="M14.668 6.47461C14.9907 6.47461 15.2539 6.2114 15.2539 5.88867C15.2539 5.56595 14.9907 5.30273 14.668 5.30273C14.3452 5.30273 14.082 5.56595 14.082 5.88867C14.082 6.2114 14.3452 6.47461 14.668 6.47461Z" fill="white"/>
<path d="M17.0508 6.47461C17.3735 6.47461 17.6367 6.2114 17.6367 5.88867C17.6367 5.56595 17.3735 5.30273 17.0508 5.30273C16.7281 5.30273 16.4648 5.56595 16.4648 5.88867C16.4648 6.2114 16.7281 6.47461 17.0508 6.47461Z" fill="white"/>
<path d="M14.668 8.81836C14.9907 8.81836 15.2539 8.55515 15.2539 8.23242C15.2539 7.9097 14.9907 7.64648 14.668 7.64648C14.3452 7.64648 14.082 7.9097 14.082 8.23242C14.082 8.55515 14.3452 8.81836 14.668 8.81836Z" fill="white"/>
<path d="M17.0508 8.81836C17.3735 8.81836 17.6367 8.55515 17.6367 8.23242C17.6367 7.9097 17.3735 7.64648 17.0508 7.64648C16.7281 7.64648 16.4648 7.9097 16.4648 8.23242C16.4648 8.55515 16.7281 8.81836 17.0508 8.81836Z" fill="white"/>
<path d="M14.1211 12.2754C14.1211 13.2446 14.9097 14.0332 15.8789 14.0332C16.8481 14.0332 17.6367 13.2446 17.6367 12.2754C17.6367 11.3062 16.8481 10.5176 15.8789 10.5176C14.9097 10.5176 14.1211 11.3062 14.1211 12.2754ZM15.8789 11.6895C16.2019 11.6895 16.4648 11.9524 16.4648 12.2754C16.4648 12.5984 16.2019 12.8613 15.8789 12.8613C15.5559 12.8613 15.293 12.5984 15.293 12.2754C15.293 11.9524 15.5559 11.6895 15.8789 11.6895Z" fill="white"/>
</svg>
