<svg width="176" height="40" viewBox="0 0 176 40" fill="none" xmlns="http://www.w3.org/2000/svg">
<path d="M14.4437 0.759033C13.0144 1.17649 11.6978 1.7078 10.4189 2.39091L2.36939 10.5123C1.69232 11.8027 1.16572 13.1309 0.751953 14.5731L14.4437 0.759033Z" fill="#434242"/>
<path d="M3.19572 30.8539L30.5792 3.22575C30.0903 2.8842 29.6013 2.58059 29.0747 2.31494L2.29297 29.3358C2.59388 29.8671 2.8948 30.3605 3.19572 30.8539Z" fill="#434242"/>
<path d="M10.4577 37.6091L37.277 10.5503C37.0137 10.019 36.7128 9.52559 36.3743 9.03223L8.95312 36.6983C9.44212 37.0398 9.93111 37.3434 10.4577 37.6091Z" fill="#434242"/>
<path d="M39.1558 15.6357L15.4961 39.5066C16.1731 39.6584 16.8502 39.7723 17.5273 39.8482L39.4943 17.685C39.4191 17.0019 39.3062 16.2808 39.1558 15.6357Z" fill="#434242"/>
<path d="M1.5789 27.8178L27.5707 1.59389C27.0065 1.32824 26.4046 1.13848 25.8028 0.94873L0.939453 26.0342C1.12753 26.6414 1.3156 27.2106 1.5789 27.8178Z" fill="#434242"/>
<path d="M39.6458 19.9999C39.6458 19.924 39.6082 19.886 39.6082 19.8101L19.6348 39.9619C19.71 39.9619 19.7476 39.9999 19.8228 39.9999C20.6127 39.9999 21.4027 39.924 22.1926 39.8101L39.4577 22.3908C39.5706 21.5938 39.6458 20.7969 39.6458 19.9999Z" fill="#434242"/>
<path d="M37.3894 29.1841C38.0289 27.9317 38.5555 26.6034 38.9316 25.1992L24.9766 39.2789C26.3683 38.8994 27.6848 38.3681 28.9261 37.7609L37.3894 29.1841Z" fill="#434242"/>
<path d="M13.7308 39.0134L38.6694 13.8521C38.4813 13.2449 38.2556 12.6377 37.9923 12.0684L11.9629 38.3303C12.5271 38.5959 13.1289 38.8236 13.7308 39.0134Z" fill="#434242"/>
<path d="M35.4317 7.7039C35.0931 7.24849 34.717 6.83103 34.3408 6.41357L6.35547 34.6489C6.76923 35.0284 7.18299 35.4079 7.63437 35.7494L35.4317 7.7039Z" fill="#434242"/>
<path d="M0 20L19.823 0H19.6725C18.845 0 18.0551 0.0759013 17.2652 0.189753L0.188074 17.4194C0.0752295 18.2543 0 19.0892 0 19.962V20Z" fill="#434242"/>
<path d="M0.451814 24.2504L24.0363 0.455326C23.3592 0.303524 22.6445 0.189672 21.9675 0.11377L0.113281 22.1631C0.188511 22.8462 0.301355 23.5673 0.451814 24.2504Z" fill="#434242"/>
<path d="M31.8964 4.17456L4.13672 32.1822C4.47525 32.6376 4.8514 33.055 5.22754 33.5104L33.2129 5.27513C32.7615 4.89562 32.3478 4.51611 31.8964 4.17456Z" fill="#434242"/>
<path d="M41.527 0C30.6939 0.113852 21.9297 9.03226 21.9297 20C21.9297 31.0436 30.7692 40 41.7151 40C52.661 40 61.5381 31.0436 61.5381 20C61.5381 9.03226 52.7738 0.113852 41.9408 0H41.527ZM41.7151 26.148C38.3674 26.148 35.6215 23.3776 35.6215 20C35.6215 16.5844 38.3674 13.852 41.7151 13.852C45.1004 13.852 47.8087 16.5844 47.8087 20C47.8087 23.3776 45.1004 26.148 41.7151 26.148Z" fill="#373435"/>
<path d="M41.7147 13.8521C45.1 13.8521 47.8083 16.5845 47.8083 20.0001C47.8083 23.3777 45.1 26.1481 41.7147 26.1481C38.367 26.1481 35.6211 23.3777 35.6211 20.0001C35.6211 16.5845 38.367 13.8521 41.7147 13.8521Z" fill="#FEFEFE"/>
<path d="M41.7145 7.81787C35.0566 7.81787 29.6777 13.2827 29.6777 20C29.6777 26.7173 35.0566 32.1442 41.7145 32.1442C48.3723 32.1442 53.7888 26.7173 53.7888 20C53.7888 13.2827 48.3723 7.81787 41.7145 7.81787ZM41.7145 26.1101C38.3667 26.1101 35.6585 23.3776 35.6585 20C35.6585 16.6224 38.3667 13.8899 41.7145 13.8899C45.0622 13.8899 47.808 16.6224 47.808 20C47.808 23.3776 45.0622 26.1101 41.7145 26.1101Z" fill="#5B5B5B"/>
<path d="M41.7139 15.7876C39.4194 15.7876 37.5762 17.6851 37.5762 20.0001C37.5762 22.3151 39.4194 24.1747 41.7139 24.1747C44.0084 24.1747 45.8891 22.3151 45.8891 20.0001C45.8891 17.6851 44.0084 15.7876 41.7139 15.7876Z" fill="#373435"/>
<path d="M70.2637 0.227704C70.6398 0.151803 71.0912 0.113852 71.5426 0.0759013C72.0316 0.0379507 72.4453 0 72.8591 0C73.2352 0 73.6866 0.0379507 74.1756 0.0759013C74.6646 0.113852 75.116 0.151803 75.4921 0.227704V15.2562C76.1316 14.1935 77.1096 13.2827 78.4637 12.4858C79.7802 11.7268 81.3976 11.3093 83.316 11.3093C84.9334 11.3093 86.438 11.575 87.8298 12.1442C89.1839 12.6755 90.3876 13.4725 91.3656 14.611C92.3435 15.7116 93.1334 17.1537 93.6601 18.8615C94.2243 20.6072 94.4876 22.6186 94.4876 24.9715C94.4876 29.6774 93.1711 33.3586 90.538 36.0152C87.905 38.6717 84.1435 40 79.1784 40C77.6362 40 76.0563 39.8482 74.4013 39.5446C72.7839 39.241 71.3921 38.8994 70.2637 38.482V0.227704ZM75.4921 34.9146C76.1316 35.1423 76.8086 35.2941 77.5233 35.37C78.238 35.4459 78.9903 35.4839 79.7802 35.4839C81.0967 35.4839 82.3004 35.2941 83.3912 34.8767C84.5197 34.4592 85.46 33.852 86.2876 33.0171C87.0775 32.1822 87.7545 31.1195 88.2059 29.8292C88.6949 28.5009 88.9206 26.9829 88.9206 25.1992C88.9206 22.2391 88.4316 19.962 87.3784 18.3302C86.3628 16.6983 84.6701 15.8634 82.3004 15.8634C81.5105 15.8634 80.7206 15.9772 79.8931 16.2429C79.1031 16.5465 78.3885 16.9639 77.7114 17.5332C77.0343 18.1404 76.5077 18.8994 76.094 19.8861C75.6802 20.8729 75.4921 22.0493 75.4921 23.4535V34.9146Z" fill="#373435"/>
<path d="M111.454 21.2903C111.454 19.203 110.927 17.7609 109.874 16.926C108.783 16.129 107.278 15.7116 105.247 15.7116C104.006 15.7116 102.877 15.7875 101.787 15.9772C100.696 16.2049 99.6802 16.4326 98.627 16.7742C97.9875 15.5977 97.649 14.1935 97.649 12.5617C98.8527 12.1442 100.169 11.8406 101.599 11.6509C103.066 11.4231 104.457 11.3093 105.774 11.3093C109.31 11.3093 111.98 12.1442 113.823 13.7381C115.666 15.37 116.569 17.9507 116.569 21.518V38.6338C115.328 38.9374 113.861 39.241 112.093 39.5446C110.325 39.8482 108.52 40 106.677 40C104.946 40 103.404 39.8102 102.012 39.5066C100.621 39.1651 99.4169 38.6717 98.4765 37.9507C97.4985 37.2296 96.7462 36.3188 96.2196 35.2182C95.693 34.1176 95.4297 32.7894 95.4297 31.2334C95.4297 29.7154 95.7306 28.3491 96.3325 27.2106C96.9719 26.0342 97.7994 25.0854 98.8527 24.3264C99.9059 23.5674 101.147 22.9981 102.501 22.6186C103.893 22.2391 105.322 22.0493 106.827 22.0493C107.955 22.0493 108.896 22.0873 109.61 22.1252C110.325 22.2011 110.965 22.2391 111.454 22.315V21.2903ZM111.454 26.4896C110.927 26.4137 110.25 26.3378 109.422 26.2619C108.632 26.186 107.918 26.148 107.391 26.148C105.172 26.148 103.517 26.5655 102.388 27.4004C101.222 28.1973 100.658 29.4497 100.658 31.1195C100.658 32.1822 100.846 33.0171 101.222 33.6243C101.636 34.2315 102.125 34.6869 102.689 35.0285C103.291 35.3321 103.931 35.5218 104.608 35.5977C105.322 35.6736 105.999 35.7116 106.639 35.7116C107.429 35.7116 108.294 35.6736 109.159 35.5977C110.024 35.4839 110.777 35.37 111.454 35.1803V26.4896Z" fill="#373435"/>
<path d="M119.2 34.3833C120.141 34.7628 121.194 35.0664 122.322 35.3321C123.488 35.5598 124.617 35.6736 125.745 35.6736C126.573 35.6736 127.325 35.5598 128.077 35.408C128.83 35.2182 129.469 34.9526 129.996 34.5731C130.56 34.2315 131.011 33.814 131.35 33.2827C131.651 32.7514 131.839 32.1822 131.839 31.537C131.839 30.8539 131.688 30.2467 131.425 29.7913C131.162 29.3359 130.823 28.9184 130.372 28.6148C129.92 28.3112 129.431 28.0076 128.83 27.7799C128.265 27.5522 127.626 27.3245 126.949 27.1347L125.106 26.4137C122.849 25.5787 121.231 24.63 120.178 23.5294C119.163 22.4668 118.674 21.0247 118.674 19.241C118.674 16.8121 119.501 14.8767 121.231 13.4725C122.924 12.0304 125.444 11.3093 128.754 11.3093C130.146 11.3093 131.5 11.4611 132.817 11.7268C134.133 11.9924 135.299 12.296 136.277 12.6755C136.202 13.3586 136.089 14.0797 135.864 14.8008C135.676 15.5218 135.45 16.167 135.149 16.7742C134.397 16.4706 133.456 16.2049 132.403 15.9393C131.312 15.6736 130.146 15.5218 128.905 15.5218C127.626 15.5218 126.46 15.7875 125.444 16.2429C124.466 16.6983 123.94 17.5332 123.94 18.6717C123.94 19.2789 124.09 19.8102 124.316 20.2277C124.579 20.6831 124.918 21.0247 125.331 21.3283C125.745 21.6319 126.234 21.8975 126.798 22.0873C127.325 22.315 127.927 22.5427 128.566 22.7324L130.898 23.5294C131.726 23.833 132.516 24.1746 133.306 24.5541C134.058 24.9336 134.698 25.4269 135.262 26.0342C135.788 26.6034 136.24 27.3245 136.578 28.1594C136.917 28.9943 137.067 30.019 137.067 31.1954C137.067 32.4858 136.804 33.7002 136.277 34.7628C135.751 35.8634 134.998 36.7742 134.02 37.5712C133.043 38.3302 131.876 38.8994 130.522 39.3548C129.131 39.7723 127.626 40 125.971 40C124.278 40 122.774 39.8482 121.532 39.6205C120.253 39.3928 119.05 39.0892 117.959 38.7097C118.034 37.9886 118.185 37.2676 118.41 36.5465C118.636 35.8254 118.899 35.1044 119.2 34.3833Z" fill="#373435"/>
<path d="M144.365 0.948787C144.817 0.910836 145.23 0.834935 145.719 0.796984C146.171 0.759033 146.622 0.759033 147.073 0.759033C147.525 0.759033 147.976 0.759033 148.465 0.796984C148.917 0.834935 149.33 0.910836 149.782 0.948787V39.3548C149.33 39.4307 148.917 39.4687 148.465 39.5066C148.051 39.5446 147.562 39.5446 147.073 39.5446C146.622 39.5446 146.133 39.5446 145.682 39.5066C145.193 39.4687 144.779 39.4307 144.365 39.3548V0.948787Z" fill="#D12023"/>
<path d="M152.717 0.910813C153.281 0.834911 153.883 0.75901 154.598 0.721059C155.35 0.645158 156.102 0.569257 156.892 0.531306C157.682 0.455405 158.472 0.417454 159.262 0.379503C160.052 0.341553 160.842 0.341553 161.556 0.341553C163.512 0.341553 165.355 0.531306 167.086 0.910813C168.854 1.29032 170.358 1.97343 171.712 2.96015C173.029 3.90892 174.082 5.16129 174.834 6.75522C175.624 8.34914 176 10.3226 176 12.7135C176 15.2182 175.587 17.2676 174.759 18.9374C173.932 20.5693 172.841 21.8975 171.487 22.9222C170.132 23.9089 168.59 24.592 166.86 25.0095C165.13 25.4269 163.362 25.6167 161.556 25.6167C160.879 25.6167 160.315 25.6167 159.788 25.6167C159.299 25.5787 158.735 25.5408 158.133 25.4649V39.3548C157.268 39.4307 156.365 39.5066 155.425 39.5066C155.011 39.5066 154.56 39.5066 154.071 39.4687C153.62 39.4687 153.168 39.4307 152.717 39.3548V0.910813ZM158.133 20.7211C158.698 20.797 159.187 20.8349 159.6 20.8729C160.052 20.9108 160.654 20.9488 161.481 20.9488C162.572 20.9488 163.625 20.8349 164.716 20.5693C165.807 20.3416 166.747 19.9241 167.612 19.3169C168.44 18.7097 169.117 17.9127 169.643 16.8501C170.132 15.7875 170.396 14.4213 170.396 12.7514C170.396 11.3093 170.17 10.0949 169.756 9.07021C169.305 8.08349 168.703 7.28653 167.913 6.67931C167.123 6.0721 166.22 5.65465 165.13 5.38899C164.001 5.16129 162.835 5.00948 161.556 5.00948C160.277 5.00948 159.111 5.08539 158.133 5.19924V20.7211Z" fill="#D12023"/>
<path d="M42.8046 16.3948C41.6762 16.3948 40.7734 17.3056 40.7734 18.4441C40.7734 19.5826 41.6762 20.4935 42.8046 20.4935C43.8954 20.4935 44.7982 19.5826 44.7982 18.4441C44.7982 17.3056 43.8954 16.3948 42.8046 16.3948Z" fill="#D32D23"/>
</svg>
