<svg width="21" height="20" viewBox="0 0 21 20" fill="none" xmlns="http://www.w3.org/2000/svg">
<path d="M8.28298 11.7184C6.374 9.80944 5.94296 7.90045 5.84571 7.13562C5.81854 6.92414 5.89132 6.71205 6.04261 6.56182L7.58746 5.01766C7.8147 4.79055 7.85503 4.43661 7.6847 4.16421L5.22502 0.344855C5.03657 0.0432137 4.64965 -0.0656518 4.33156 0.0934733L0.382899 1.95315C0.125675 2.07981 -0.0256204 2.3531 0.00358452 2.63833C0.210483 4.60386 1.06739 9.43564 5.81571 14.1843C10.564 18.933 15.3951 19.7895 17.3617 19.9964C17.6469 20.0256 17.9202 19.8743 18.0469 19.6171L19.9065 15.6685C20.0651 15.3511 19.9569 14.9652 19.6565 14.7764L15.8372 12.3174C15.5649 12.1469 15.211 12.1869 14.9837 12.4139L13.4396 13.9588C13.2893 14.1101 13.0773 14.1829 12.8658 14.1557C12.101 14.0584 10.192 13.6274 8.28298 11.7184Z" fill="white"/>
<path d="M15.8643 10.6898C15.4834 10.6898 15.1746 10.381 15.1746 10.0002C15.1714 7.14482 12.8575 4.83092 10.0022 4.82769C9.62127 4.82769 9.3125 4.51892 9.3125 4.13803C9.3125 3.75714 9.62127 3.44836 10.0022 3.44836C13.619 3.45236 16.55 6.38336 16.554 10.0002C16.554 10.381 16.2452 10.6898 15.8643 10.6898Z" fill="white"/>
<path d="M19.3126 10.6898C18.9317 10.6898 18.6229 10.381 18.6229 10.0001C18.6176 5.24119 14.7611 1.38465 10.0022 1.37932C9.62127 1.37932 9.3125 1.07055 9.3125 0.689662C9.3125 0.308772 9.62127 0 10.0022 0C15.5225 0.0060814 19.9962 4.47972 20.0023 10.0001C20.0023 10.183 19.9296 10.3584 19.8003 10.4878C19.6709 10.6171 19.4955 10.6898 19.3126 10.6898Z" fill="white"/>
</svg>
